<mxfile host="app.diagrams.net" modified="2024-02-21T17:16:56.857Z" agent="Mozilla/5.0 (Windows NT 10.0; Win64; x64) AppleWebKit/537.36 (KHTML, like Gecko) Chrome/121.0.0.0 Safari/537.36 Edg/121.0.0.0" version="23.1.5" etag="yyPLX3dZvn_O-AwiG_MH" type="github">
  <diagram name="Page-1" id="ll8dguvFfSGfcC2gaz9z">
    <mxGraphModel>
      <root>
        <mxCell id="0" />
        <mxCell id="1" parent="0" />
      </root>
    </mxGraphModel>
  </diagram>
</mxfile>
